<svg xmlns="http://www.w3.org/2000/svg" width="32" height="32" fill="none" viewBox="0 0 32 32">
    <path fill="#8E8E8E" fill-opacity=".74" fill-rule="evenodd" d="M19.868 18.749l1.027.006 6.448 6.455-1.948 1.9-6.462-6.442.006-1.014-.349-.361c-1.49 1.249-3.418 1.994-5.511 1.982-4.667-.028-8.428-3.785-8.4-8.391.027-4.607 3.833-8.318 8.5-8.29 4.667.028 8.428 3.785 8.4 8.391-.012 2.066-.79 3.96-2.073 5.415l.362.349zm-12.59-5.85c-.019 3.195 2.579 5.79 5.816 5.81 3.237.019 5.866-2.545 5.885-5.74.02-3.194-2.578-5.79-5.815-5.809-3.238-.02-5.866 2.544-5.885 5.74z" clip-rule="evenodd"/>
</svg>
